# xmcd
#
# Track frame offsets:
#	150
#	758
#	6622
#	11122
#	15302
#	27762
#	39656
#	53964
#	71975
#	88330
#	103336
#	113408
#	116206
#	128172
#	135496
#	152917
#	157845
#	164995
#	173322
#	187106
#	196660
#	206572
#	214897
#	227600
#	233815
#	241026
#	245364
#	254564
#	263389
#	268179
#	274290
#	280477
#	292106
#	297721
#	308804
#	317697
#	327685
#	335702
#	342613
#	349919
#
# Disc length: 4779 seconds
#
# Revision: 0
# Processed by: cddbd v1.5.2PL0 Copyright (c) Steve Scherf et al.
# Submitted via: EasyCDDAExtractor 10.5.1.1
#
DISCID=6812a928
DTITLE=BAYRONN CAISEDO - FULL-MIX
DYEAR=1900
DGENRE=
TTITLE0=INTRO
TTITLE1=MEGAMIX
TTITLE2=PUEBLO DE MIS AMORES
TTITLE3=TSUNAMI
TTITLE4=BELLA AMAZONICA
TTITLE5=LA VACA LOCA
TTITLE6=EL TORERO
TTITLE7=MUJER QUE QUIERES
TTITLE8=QUE IMPORTA MI AMOR
TTITLE9=POR MI YA NO HAY DOLOR
TTITLE10=MI ORGULLO
TTITLE11=CHULLA VIDA
TTITLE12=NO SOY DE TU CLASE
TTITLE13=BOQUITA PINTADA
TTITLE14=RUMBO AL CISNE
TTITLE15=CHAVELONA
TTITLE16=MULATA
TTITLE17=PURO PUYENSE
TTITLE18=VERBENITA
TTITLE19=EL ANILLO
TTITLE20=EL LOCUTORIO
TTITLE21=PILA PILA
TTITLE22=LA MITAD DE MI
TTITLE23=MIENTRAS VIVA HAY QUE GOZAR
TTITLE24=PILA PILA .
TTITLE25=CERVEZA MAS CERVEZA
TTITLE26=ME RESIGNE
TTITLE27=QUIERO CONOCER OTRO QUERER
TTITLE28=QUIERO OLVIDAR
TTITLE29=SOLA, SOLA
TTITLE30=SOY ILEGAL
TTITLE31=ES MI DISCO DURO
TTITLE32=SUSANA
TTITLE33=PATOS A NADAR
TTITLE34=CORAZON DOLIDO
TTITLE35=SI SE PUEDE
TTITLE36=POR MI ECUADOR
TTITLE37=UNA AVENTURA ENTRE TU Y YO
TTITLE38=MUJER BUENA
TTITLE39=LEJOS DE TI MI VIDA
EXTD=
EXTT0=
EXTT1=
EXTT2=
EXTT3=
EXTT4=
EXTT5=
EXTT6=
EXTT7=
EXTT8=
EXTT9=
EXTT10=
EXTT11=
EXTT12=
EXTT13=
EXTT14=
EXTT15=
EXTT16=
EXTT17=
EXTT18=
EXTT19=
EXTT20=
EXTT21=
EXTT22=
EXTT23=
EXTT24=
EXTT25=
EXTT26=
EXTT27=
EXTT28=
EXTT29=
EXTT30=
EXTT31=
EXTT32=
EXTT33=
EXTT34=
EXTT35=
EXTT36=
EXTT37=
EXTT38=
EXTT39=
PLAYORDER=
